<?xml version="1.0" encoding="UTF-8"?>
<svg width="1200px" height="370px" viewBox="0 0 1200 370" version="1.1" xmlns="http://www.w3.org/2000/svg" xmlns:xlink="http://www.w3.org/1999/xlink">
    <!-- Generator: Sketch 51.1 (57501) - http://www.bohemiancoding.com/sketch -->
    <title> Home Image 2</title>
    <desc>Created with Sketch.</desc>
    <defs>
        <filter x="-45.9%" y="-45.9%" width="191.7%" height="191.7%" filterUnits="objectBoundingBox" id="filter-1">
            <feGaussianBlur stdDeviation="50" in="SourceGraphic"></feGaussianBlur>
        </filter>
        <filter x="-53.8%" y="-269.6%" width="207.7%" height="639.1%" filterUnits="objectBoundingBox" id="filter-2">
            <feGaussianBlur stdDeviation="19.3219866" in="SourceGraphic"></feGaussianBlur>
        </filter>
        <filter x="-21.8%" y="-231.6%" width="143.6%" height="563.1%" filterUnits="objectBoundingBox" id="filter-3">
            <feGaussianBlur stdDeviation="20.3404018" in="SourceGraphic"></feGaussianBlur>
        </filter>
        <filter x="-17.1%" y="-181.4%" width="134.2%" height="462.8%" filterUnits="objectBoundingBox" id="filter-4">
            <feGaussianBlur stdDeviation="19.6707589" in="SourceGraphic"></feGaussianBlur>
        </filter>
        <filter x="-21.3%" y="-167.0%" width="142.6%" height="434.0%" filterUnits="objectBoundingBox" id="filter-5">
            <feGaussianBlur stdDeviation="20.1646205" in="SourceGraphic"></feGaussianBlur>
        </filter>
        <filter x="-40.6%" y="-251.2%" width="181.2%" height="602.4%" filterUnits="objectBoundingBox" id="filter-6">
            <feGaussianBlur stdDeviation="19.8716518" in="SourceGraphic"></feGaussianBlur>
        </filter>
        <filter x="-3.3%" y="-7.5%" width="106.6%" height="115.1%" filterUnits="objectBoundingBox" id="filter-7">
            <feGaussianBlur stdDeviation="10" in="SourceGraphic"></feGaussianBlur>
        </filter>
        <filter x="-15.8%" y="-23.1%" width="131.5%" height="146.3%" filterUnits="objectBoundingBox" id="filter-8">
            <feGaussianBlur stdDeviation="29.6847098" in="SourceGraphic"></feGaussianBlur>
        </filter>
        <filter x="-22.5%" y="-23.1%" width="144.9%" height="146.2%" filterUnits="objectBoundingBox" id="filter-9">
            <feGaussianBlur stdDeviation="30.1729911" in="SourceGraphic"></feGaussianBlur>
        </filter>
        <filter x="-10.2%" y="-28.0%" width="120.4%" height="156.0%" filterUnits="objectBoundingBox" id="filter-10">
            <feGaussianBlur stdDeviation="29.8549107" in="SourceGraphic"></feGaussianBlur>
        </filter>
    </defs>
    <g id="-Home-Image-2" stroke="none" stroke-width="1" fill="none" fill-rule="evenodd">
        <rect id="Sky-BG" fill="#FF8A65" fill-rule="nonzero" x="0" y="0" width="1200" height="377"></rect>
        <circle id="Oval" fill="#FFE082" fill-rule="nonzero" filter="url(#filter-1)" cx="804.5" cy="163.5" r="163.5"></circle>
        <g id="Clouds" transform="translate(16.000000, 24.000000)" fill="#FFFFFF" fill-rule="nonzero">
            <path d="M1136.32031,62 C1136.32031,62 1116.21354,65.0911458 1076,71.2734375 L1130.27344,71.2734375 L1183.67969,83.5039062 L1183.67969,62 C1152.10677,62 1136.32031,62 1136.32031,62 Z" id="Cloud-5" filter="url(#filter-2)"></path>
            <polygon id="Cloud-4" filter="url(#filter-3)" points="768 0 998.679688 6.609375 1047.98047 26.3515625"></polygon>
            <path d="M330,102.515625 C417.817708,94.8385417 464.286458,91 469.40625,91 C474.526042,91 510.104167,94.8385417 576.140625,102.515625 L659.292969,91 L674.65625,115.558594 C618.401042,120.876302 585.5625,123.535156 576.140625,123.535156 C566.71875,123.535156 520.641927,118.11263 437.910156,107.267578 L376.511719,115.558594 L330,102.515625 Z" id="Cloud-3" filter="url(#filter-4)"></path>
            <path d="M317.871094,60.3242188 C317.871094,60.3242188 270.393229,58.5494792 175.4375,55 C132.151042,62.390625 110.507812,66.0859375 110.507812,66.0859375 C110.507812,66.0859375 85.0052083,68.1171875 34,72.1796875 L73.1953125,91.21875 L175.935547,82.921875 L278.949219,73.109375 C304.897135,64.5859375 317.871094,60.3242188 317.871094,60.3242188 Z" id="Cloud-2" filter="url(#filter-5)"></path>
            <polygon id="Cloud-1" filter="url(#filter-6)" points="0 9.671875 46.53125 0 91.4609375 9.671875 132.300781 4.8359375 146.8125 9.671875 139.867188 23.7304688 73.40625 23.7304688 40.0039063 11.8652344 9.2890625 23.7304688"></polygon>
        </g>
        <g id="Sun" transform="translate(0.000000, 110.000000)" fill-rule="nonzero">
            <circle fill="#FFC107" cx="810.5" cy="75.5" r="75.5"></circle>
            <polygon id="color-blur" fill="#FF5722" filter="url(#filter-7)" points="739.234375 54.8398438 760.878906 42.1132812 792.546875 48.4765625 817.9375 42.1132812 844.429688 42.1132812 861.703125 42.1132812 879.390625 48.4765625 907.621094 83.34375 907.621094 440 1.13686838e-13 440"></polygon>
        </g>
        <polygon id="Path" fill="#26A69A" fill-rule="nonzero" points="0 550 0 170.9328 104.425781 165.065153 118.761719 170.9328 128.136719 165.065153 143.355469 165.065153 157.574219 165.065153 165.136719 156.453276 186.441406 142.77513 212.472656 130 230.621094 137.212398 264.144531 156.453276 293.007813 170.9328 308.328125 170.9328 327.113281 178.231199 360.816406 178.231199 391.691406 186.041698 415.605469 186.041698 439.582031 170.9328 467.003906 170.9328 490.800781 178.231199 507.691406 186.041698 649.242188 186.041698 684.304688 170.9328 702.414062 156.453276 718.058594 165.065153 745.050781 165.065153 766.636719 170.9328 787.898438 165.065153 810.519531 165.065153 831.269531 170.9328 850.277344 170.9328 880.863281 186.041698 954.929688 186.041698 1069.74609 165.065153 1104.05078 149.580975 1129.62891 149.580975 1153.51953 149.580975 1168.82422 156.453276 1192.46094 165.065153 1200 170.9328 1200 550"></polygon>
        <polygon id="Path" fill="#00897B" fill-rule="nonzero" points="0 356.411424 396.33711 226.011047 408.523142 202.789169 422.127426 202.789169 442.490876 186.419776 459.572418 186.419776 477.243923 176.703624 492.48916 176.703624 519.174187 167.76492 550.364021 151.043918 565.812424 144 582.003164 151.043918 600.12007 144 631.59121 167.76492 653.634683 176.703624 671.05223 176.703624 692.314297 186.419776 715.244666 195.323319 756.940508 208.567291 820 290.285329 820 550 0 550"></polygon>
        <polygon id="Path" fill="#FF8A65" fill-rule="nonzero" filter="url(#filter-8)" points="1200 180.624435 1125.91464 165 972.834568 206.266338 796.664581 185.633169 708.019134 180.624435 635 212.741329 635 550 1200 550"></polygon>
        <polygon id="Path" fill="#FF8A65" fill-rule="nonzero" filter="url(#filter-9)" points="0 550 0 178.672683 172.833135 171.08541 218.398589 158 307.892953 192.406312 403 224.992927 403 550"></polygon>
        <path d="M0,154.482927 L48.78125,161.143462 L90.546875,169.424232 L114.421875,176.646969 L132.132813,176.646969 C146.486979,173.013477 153.664062,173.013477 153.664062,176.646969 C153.664062,180.280461 167.541667,183.934776 195.296875,187.609913 L211.125,187.609913 L234.355469,192.997684 C246.12707,202.195539 261.132278,209.187929 279.371094,213.974854 C287.774205,216.180319 299.410924,216.180319 314.28125,213.974854 L331.507813,213.974854 L359.011719,213.974854 L387.753906,206.767734 L415.789063,206.767734 C420.929205,211.572481 426.877122,213.974854 433.632813,213.974854 C446.641854,213.974854 447.908214,206.767734 462.074219,206.767734 C476.240223,206.767734 474.484665,212.191835 490.382813,213.974854 C501.20462,215.188549 513.188995,215.188549 526.335938,213.974854 C547.664854,201.242779 560.782042,194.250389 565.6875,192.997684 C570.592958,191.744979 576.280458,193.935226 582.75,199.568422 C594.581584,198.628053 605.844605,198.628053 616.539062,199.568422 C633.136272,201.027824 649.164918,203.427594 664.625,206.767734 C675.975479,201.968193 686.651261,199.568422 696.652344,199.568422 C704.496313,199.568422 711.665584,201.968193 718.160156,206.767734 L754.777344,206.767734 C769.674138,209.373148 780.046534,209.373148 785.894531,206.767734 C814.181951,194.165057 837.944972,178.956966 857.183594,161.143462 C860.639738,155.025506 866.293384,152.805328 874.144531,154.482927 C885.921253,156.999327 882.851421,167.663141 895.9375,169.424232 C907.597515,170.993408 911.300385,163.811916 929.417969,161.143462 C939.411713,159.671531 933.097138,150.805717 952.160156,161.143462 C971.223175,171.481208 972.462731,184.209255 990.21875,187.609913 C1002.0561,189.877018 1016.35297,186.222703 1033.10938,176.646969 L1072.08203,154.482927 L1095.53125,143.008536 L1116.71094,143.008536 L1137.25,137 L1150.39062,143.008536 C1157.84893,150.65813 1164.78122,154.482927 1171.1875,154.482927 C1180.30073,154.482927 1182.73018,144.038695 1187.83594,143.008536 C1191.23978,142.321764 1195.29446,144.208785 1200,148.6696 L1200,550 L0,550 L0,154.482927 Z" id="Path" fill="#4DB6AC" fill-rule="nonzero"></path>
        <polygon id="Secondary-Mountain-Range" fill="#009688" fill-rule="nonzero" points="710 415.184518 829.666111 313.355169 860.87894 283.787898 874.902832 258.792 916.544685 225.603609 927.852888 209.406329 972.882513 170.520344 1003.30603 158.648074 1023.10907 158.648074 1042.13842 147.205959 1061.24592 141 1090.63006 147.205959 1108.6044 158.648074 1124.57811 170.520344 1144.12325 183.221639 1160.22201 183.221639 1180.35327 192.184499 1200 199.239036 1200 551 710 551"></polygon>
        <path d="M323,245.928344 L435.610394,230 C494.847787,240.618896 526.684176,245.928344 531.119562,245.928344 C535.554949,245.928344 554.111209,245.928344 586.788344,245.928344 C644.190674,240.844082 674.906504,238.301951 678.935834,238.301951 C682.965163,238.301951 715.726893,238.301951 777.221023,238.301951 C829.698617,251.552792 857.78419,261.403712 861.477742,267.854711 C865.171295,274.30571 889.310832,276.717675 933.896353,275.090607 L1022.95157,286.750827 L1148.37617,316.342636 L1200,433.042454 L1200,550 L323,550 L323,245.928344 Z" id="Path" fill="#FF8A65" fill-rule="nonzero" filter="url(#filter-10)"></path>
        <path d="M0.120046662,133.422986 C0.280108879,130.029327 6.94610862,127.554999 20.1180459,126 L29.7030244,126 L37.7412827,129.711493 L46.943487,141.564073 L60.4421365,155.629499 L72.4721829,169.14464 L89.060367,178.870234 C93.0892495,177.252084 98.513186,177.252084 105.332177,178.870234 C115.560662,181.297459 115.471893,185.1517 121.689915,186.613243 C127.907937,188.074787 129.023649,184.649857 138.274193,186.613243 C144.441223,187.922168 149.357397,190.138916 153.022718,193.263489 L176.469591,193.263489 L215.33289,198.387769 L246.767245,193.263489 L261.101748,193.263489 C266.052796,188.829992 271.278836,186.613243 276.779867,186.613243 C282.280898,186.613243 287.892316,188.829992 293.61412,193.263489 L306.823736,206.255665 L325.974164,216.956941 L351.27632,230.308168 C365.584233,241.509538 382.35469,251.919411 401.587693,261.537785 C409.931733,265.710618 411.060516,259.41501 425.663409,267.508956 C435.398671,272.90492 442.174035,279.118061 445.9895,286.148377 L477.404326,301.689034 L524.005133,318.295134 L566.204036,327.571915 L614.152363,327.571915 L661.768693,333.675779 L695.691081,333.675779 L732.55458,338.835183 L759.926841,333.675779 L787.627195,327.571915 C798.836266,322.958155 811.397509,319.865895 825.310925,318.295134 C838.787998,316.773635 853.617243,316.773635 869.798661,318.295134 L906.443433,318.295134 C919.305016,317.002285 931.111127,317.002285 941.861764,318.295134 C964.306168,320.994251 963.494536,327.571915 983.584152,327.571915 C1000.61973,327.571915 1001.71284,318.295134 1016.11215,318.295134 C1025.71168,318.295134 1034.96857,321.387395 1043.88281,327.571915 L1088.12838,333.675779 C1097.25612,332.851785 1105.71622,332.851785 1113.50865,333.675779 C1121.98021,334.571586 1129.78412,336.291387 1136.92037,338.835183 L1168.45628,352.365936 L1182.17366,358.286372 L1194.42243,358.286372 L1200,352.365936 L1200,550 L0.120046662,550 C-0.0400155541,275.675649 -0.0400155541,136.816644 0.120046662,133.422986 Z" id="Main-Mountain-Range" fill="#00796B" fill-rule="nonzero"></path>
    </g>
</svg>