<?xml version="1.0" encoding="UTF-8"?>
<svg width="1200px" height="550px" viewBox="0 0 1200 550" version="1.1" xmlns="http://www.w3.org/2000/svg" xmlns:xlink="http://www.w3.org/1999/xlink">
    <!-- Generator: Sketch 51.1 (57501) - http://www.bohemiancoding.com/sketch -->
    <title> Home Image Artboard</title>
    <desc>Created with Sketch.</desc>
    <defs>
        <filter x="-45.9%" y="-45.9%" width="191.7%" height="191.7%" filterUnits="objectBoundingBox" id="filter-1">
            <feGaussianBlur stdDeviation="50" in="SourceGraphic"></feGaussianBlur>
        </filter>
        <filter x="-53.8%" y="-269.6%" width="207.7%" height="639.1%" filterUnits="objectBoundingBox" id="filter-2">
            <feGaussianBlur stdDeviation="19.3219866" in="SourceGraphic"></feGaussianBlur>
        </filter>
        <filter x="-21.8%" y="-231.6%" width="143.6%" height="563.1%" filterUnits="objectBoundingBox" id="filter-3">
            <feGaussianBlur stdDeviation="20.3404018" in="SourceGraphic"></feGaussianBlur>
        </filter>
        <filter x="-17.1%" y="-181.4%" width="134.2%" height="462.8%" filterUnits="objectBoundingBox" id="filter-4">
            <feGaussianBlur stdDeviation="19.6707589" in="SourceGraphic"></feGaussianBlur>
        </filter>
        <filter x="-21.3%" y="-167.0%" width="142.6%" height="434.0%" filterUnits="objectBoundingBox" id="filter-5">
            <feGaussianBlur stdDeviation="20.1646205" in="SourceGraphic"></feGaussianBlur>
        </filter>
        <filter x="-40.6%" y="-251.2%" width="181.2%" height="602.4%" filterUnits="objectBoundingBox" id="filter-6">
            <feGaussianBlur stdDeviation="19.8716518" in="SourceGraphic"></feGaussianBlur>
        </filter>
        <filter x="-3.3%" y="-7.5%" width="106.6%" height="115.1%" filterUnits="objectBoundingBox" id="filter-7">
            <feGaussianBlur stdDeviation="10" in="SourceGraphic"></feGaussianBlur>
        </filter>
        <filter x="-15.8%" y="-23.2%" width="131.5%" height="146.3%" filterUnits="objectBoundingBox" id="filter-8">
            <feGaussianBlur stdDeviation="29.6847098" in="SourceGraphic"></feGaussianBlur>
        </filter>
        <filter x="-22.5%" y="-23.1%" width="144.9%" height="146.2%" filterUnits="objectBoundingBox" id="filter-9">
            <feGaussianBlur stdDeviation="30.1729911" in="SourceGraphic"></feGaussianBlur>
        </filter>
        <filter x="-10.2%" y="-28.0%" width="120.4%" height="156.0%" filterUnits="objectBoundingBox" id="filter-10">
            <feGaussianBlur stdDeviation="29.8549107" in="SourceGraphic"></feGaussianBlur>
        </filter>
        <filter x="-1.7%" y="-1.5%" width="103.4%" height="106.0%" filterUnits="objectBoundingBox" id="filter-11">
            <feOffset dx="0" dy="3" in="SourceAlpha" result="shadowOffsetOuter1"></feOffset>
            <feGaussianBlur stdDeviation="1.5" in="shadowOffsetOuter1" result="shadowBlurOuter1"></feGaussianBlur>
            <feColorMatrix values="0 0 0 0 0   0 0 0 0 0   0 0 0 0 0  0 0 0 0.5 0" type="matrix" in="shadowBlurOuter1" result="shadowMatrixOuter1"></feColorMatrix>
            <feMerge>
                <feMergeNode in="shadowMatrixOuter1"></feMergeNode>
                <feMergeNode in="SourceGraphic"></feMergeNode>
            </feMerge>
        </filter>
    </defs>
    <g id="-Home-Image-Artboard" stroke="none" stroke-width="1" fill="none" fill-rule="evenodd">
        <rect id="Sky-BG" fill="#FF8A65" fill-rule="nonzero" x="0" y="0" width="1200" height="377"></rect>
        <circle id="Oval" fill="#FFE082" fill-rule="nonzero" filter="url(#filter-1)" cx="804.5" cy="163.5" r="163.5"></circle>
        <g id="Clouds" transform="translate(16.000000, 24.000000)" fill="#FFFFFF" fill-rule="nonzero">
            <path d="M1136.32031,62 C1136.32031,62 1116.21354,65.0911458 1076,71.2734375 L1130.27344,71.2734375 L1183.67969,83.5039062 L1183.67969,62 C1152.10677,62 1136.32031,62 1136.32031,62 Z" id="Cloud-5" filter="url(#filter-2)"></path>
            <polygon id="Cloud-4" filter="url(#filter-3)" points="768 0 998.679688 6.609375 1047.98047 26.3515625"></polygon>
            <path d="M330,102.515625 C417.817708,94.8385417 464.286458,91 469.40625,91 C474.526042,91 510.104167,94.8385417 576.140625,102.515625 L659.292969,91 L674.65625,115.558594 C618.401042,120.876302 585.5625,123.535156 576.140625,123.535156 C566.71875,123.535156 520.641927,118.11263 437.910156,107.267578 L376.511719,115.558594 L330,102.515625 Z" id="Cloud-3" filter="url(#filter-4)"></path>
            <path d="M317.871094,60.3242188 C317.871094,60.3242188 270.393229,58.5494792 175.4375,55 C132.151042,62.390625 110.507812,66.0859375 110.507812,66.0859375 C110.507812,66.0859375 85.0052083,68.1171875 34,72.1796875 L73.1953125,91.21875 L175.935547,82.921875 L278.949219,73.109375 C304.897135,64.5859375 317.871094,60.3242188 317.871094,60.3242188 Z" id="Cloud-2" filter="url(#filter-5)"></path>
            <polygon id="Cloud-1" filter="url(#filter-6)" points="0 9.671875 46.53125 0 91.4609375 9.671875 132.300781 4.8359375 146.8125 9.671875 139.867188 23.7304688 73.40625 23.7304688 40.0039063 11.8652344 9.2890625 23.7304688"></polygon>
        </g>
        <g id="Sun" transform="translate(0.000000, 110.000000)" fill-rule="nonzero">
            <circle fill="#FFC107" cx="810.5" cy="75.5" r="75.5"></circle>
            <polygon id="color-blur" fill="#FF5722" filter="url(#filter-7)" points="739.234375 54.8398438 760.878906 42.1132812 792.546875 48.4765625 817.9375 42.1132812 844.429688 42.1132812 861.703125 42.1132812 879.390625 48.4765625 907.621094 83.34375 907.621094 440 1.13686838e-13 440"></polygon>
        </g>
        <polygon id="Path" fill="#26A69A" fill-rule="nonzero" points="0 549.6875 0 170.902344 104.425781 165.039062 118.761719 170.902344 128.136719 165.039062 143.355469 165.039062 157.574219 165.039062 165.136719 156.433594 186.441406 142.765625 212.472656 130 230.621094 137.207031 264.144531 156.433594 293.007813 170.902344 308.328125 170.902344 327.113281 178.195312 360.816406 178.195312 391.691406 186 415.605469 186 439.582031 170.902344 467.003906 170.902344 490.800781 178.195312 507.691406 186 649.242188 186 684.304688 170.902344 702.414062 156.433594 718.058594 165.039062 745.050781 165.039062 766.636719 170.902344 787.898438 165.039062 810.519531 165.039062 831.269531 170.902344 850.277344 170.902344 880.863281 186 954.929688 186 1069.74609 165.039062 1104.05078 149.566406 1129.62891 149.566406 1153.51953 149.566406 1168.82422 156.433594 1192.46094 165.039062 1200 170.902344 1200 549.6875"></polygon>
        <polygon id="Path" fill="#00897B" fill-rule="nonzero" points="0 356.382812 396.257812 226 408.441406 202.78125 422.042969 202.78125 442.402344 186.414062 459.480469 186.414062 477.148437 176.699219 492.390625 176.699219 519.070313 167.761719 550.253906 151.042969 565.699219 144 581.886719 151.042969 600 144 631.464844 167.761719 653.503906 176.699219 670.917969 176.699219 692.175781 186.414062 715.101562 195.316406 756.789062 208.558594 819.835937 290.265625 819.835937 549.945312 0 549.945312"></polygon>
        <polygon id="Path" fill="#FF8A65" fill-rule="nonzero" filter="url(#filter-8)" points="1200.09375 180.609375 1125.99609 165 972.890625 206.226562 796.691406 185.613281 708.03125 180.609375 635 212.695312 635 549.628906 1200.09375 549.628906"></polygon>
        <polygon id="Path" fill="#FF8A65" fill-rule="nonzero" filter="url(#filter-9)" points="0 550.132812 0 178.679688 172.851562 171.089844 218.421875 158 307.925781 192.417969 403.042969 225.015625 403.042969 550.132812"></polygon>
        <path d="M0,154.492188 L48.78125,161.15625 L90.546875,169.441406 L114.421875,176.667969 L132.132813,176.667969 C146.486979,173.032552 153.664062,173.032552 153.664062,176.667969 C153.664062,180.303385 167.541667,183.959635 195.296875,187.636719 L211.125,187.636719 L234.355469,193.027344 C246.12707,202.230071 261.132278,209.226164 279.371094,214.015625 C287.774205,216.222258 299.410924,216.222258 314.28125,214.015625 L331.507813,214.015625 L359.011719,214.015625 L387.753906,206.804688 L415.789063,206.804688 C420.929205,211.611979 426.877122,214.015625 433.632813,214.015625 C446.641854,214.015625 447.908214,206.804688 462.074219,206.804688 C476.240223,206.804688 474.484665,212.231662 490.382813,214.015625 C501.20462,215.229962 513.188995,215.229962 526.335938,214.015625 C547.664854,201.276806 560.782042,194.280712 565.6875,193.027344 C570.592958,191.773976 576.280458,193.965382 582.75,199.601562 C594.581584,198.660695 605.844605,198.660695 616.539062,199.601562 C633.136272,201.061737 649.164918,203.462779 664.625,206.804688 C675.975479,202.002604 686.651261,199.601562 696.652344,199.601562 C704.496313,199.601562 711.665584,202.002604 718.160156,206.804688 L754.777344,206.804688 C769.674138,209.411481 780.046534,209.411481 785.894531,206.804688 C814.181951,194.195335 837.944972,178.979189 857.183594,161.15625 C860.639738,155.035053 866.293384,152.813699 874.144531,154.492188 C885.921253,157.00992 882.851421,167.679382 895.9375,169.441406 C907.597515,171.011413 911.300385,163.826117 929.417969,161.15625 C939.411713,159.683539 933.097138,150.813029 952.160156,161.15625 C971.223175,171.499471 972.462731,184.23426 990.21875,187.636719 C1002.0561,189.905025 1016.35297,186.248775 1033.10938,176.667969 L1072.08203,154.492188 L1095.53125,143.011719 L1116.71094,143.011719 L1137.25,137 L1150.39062,143.011719 C1157.84893,150.665365 1164.78122,154.492188 1171.1875,154.492188 C1180.30073,154.492188 1182.73018,144.042423 1187.83594,143.011719 C1191.23978,142.324583 1195.29446,144.212604 1200,148.675781 L1200,550.21875 L0,550.21875 L0,154.492188 Z" id="Path" fill="#4DB6AC" fill-rule="nonzero"></path>
        <polygon id="Secondary-Mountain-Range" fill="#009688" fill-rule="nonzero" points="710 414.886719 829.628906 313.167969 860.832031 283.632812 874.851562 258.664062 916.480469 225.511719 927.785156 209.332031 972.800781 170.488281 1003.21484 158.628906 1023.01172 158.628906 1042.03516 147.199219 1061.13672 141 1090.51172 147.199219 1108.48047 158.628906 1124.44922 170.488281 1143.98828 183.175781 1160.08203 183.175781 1180.20703 192.128906 1199.84766 199.175781 1199.84766 550.554688 710 550.554688"></polygon>
        <path d="M323,245.933594 L435.664062,230 C494.929688,240.622396 526.78125,245.933594 531.21875,245.933594 C535.65625,245.933594 554.221354,245.933594 586.914062,245.933594 C644.34375,240.847656 675.074219,238.304688 679.105469,238.304688 C683.136719,238.304688 715.914062,238.304688 777.4375,238.304688 C829.940104,251.559896 858.039062,261.414062 861.734375,267.867188 C865.429688,274.320312 889.580729,276.733073 934.1875,275.105469 L1023.28516,286.769531 L1148.76953,316.371094 L1200.41797,433.109375 L1200.41797,550.105469 L323,550.105469 L323,245.933594 Z" id="Path" fill="#FF8A65" fill-rule="nonzero" filter="url(#filter-10)"></path>
        <path d="M0.120058673,133.429688 C0.280136903,130.032965 6.94680357,127.556403 20.1200587,126 L29.7059962,126 L37.7450587,129.714844 L46.9481837,141.578125 L60.4481837,155.65625 L72.4794337,169.183594 L89.0692774,178.917969 C93.098563,177.298358 98.5230421,177.298358 105.342715,178.917969 C115.572224,181.347385 115.483446,185.205105 121.70209,186.667969 C127.920734,188.130832 129.036558,184.70281 138.288027,186.667969 C144.455674,187.978075 149.37234,190.196825 153.038027,193.324219 L176.487246,193.324219 L215.354434,198.453125 L246.791934,193.324219 L261.127871,193.324219 C266.079415,188.886719 271.305977,186.667969 276.807559,186.667969 C282.30914,186.667969 287.921119,188.886719 293.643496,193.324219 L306.854434,206.328125 L326.006777,217.039062 L351.311465,230.402344 C365.620809,241.613827 382.392944,252.033098 401.627871,261.660156 C409.972747,265.836757 411.101642,259.535465 425.705996,267.636719 C435.442232,273.037555 442.218274,279.256305 446.034121,286.292969 L477.45209,301.847656 L524.057559,318.46875 L566.260684,327.753906 L614.213809,327.753906 L661.834902,333.863281 L695.760684,333.863281 L732.627871,339.027344 L760.002871,333.863281 L787.705996,327.753906 C798.916188,323.135981 811.478688,320.040929 825.393496,318.46875 C838.871917,316.945877 853.702647,316.945877 869.885684,318.46875 L906.534121,318.46875 C919.396992,317.174734 931.204283,317.174734 941.955996,318.46875 C964.402646,321.170304 963.590932,327.753906 983.682559,327.753906 C1000.71984,327.753906 1001.81306,318.46875 1016.21381,318.46875 C1025.81431,318.46875 1035.07212,321.563802 1043.98725,327.753906 L1088.23725,333.863281 C1097.3659,333.038543 1105.82684,333.038543 1113.62006,333.863281 C1122.09247,334.759897 1129.89715,336.481251 1137.03412,339.027344 L1168.57318,352.570312 L1182.29193,358.496094 L1194.54193,358.496094 L1200.12006,352.570312 L1200.12006,550.382812 L0.120058673,550.382812 C-0.0400195576,275.810785 -0.0400195576,136.82641 0.120058673,133.429688 Z" id="Main-Mountain-Range" fill="#00796B" fill-rule="nonzero"></path>
        <g id="314-Logo-Center" filter="url(#filter-11)" transform="translate(425.000000, 189.000000)" fill="#FFFFFF" fill-rule="nonzero">
            <path d="M0,0 L125,0 L125,50 L0,50 L0,0 Z M0,75 L125,75 L125,125 L0,125 L0,75 Z M0,150 L125,150 L125,200 L0,200 L0,150 Z" id="3-item"></path>
            <polygon id="1-Item" points="150 0 200 0 200 200 150 200"></polygon>
            <path d="M275,75 L300,75 L300,0 L350,0 L350,200 L300,200 L300,125 L275,125 L225,125 L225,0 L275,0 L275,75 Z" id="4-item"></path>
        </g>
    </g>
</svg>